<svg xmlns="http://www.w3.org/2000/svg" width="18.786" height="18.786" viewBox="0 0 18.786 18.786"><defs><style>.a{fill:#fff;}</style></defs><path class="a" d="M314.21,142.217h-7.283a5.758,5.758,0,0,1-5.752-5.752v-7.283a5.758,5.758,0,0,1,5.752-5.752h7.283a5.758,5.758,0,0,1,5.752,5.752v7.283A5.758,5.758,0,0,1,314.21,142.217Zm-7.283-17.38a4.35,4.35,0,0,0-4.345,4.345v7.283a4.35,4.35,0,0,0,4.345,4.345h7.283a4.35,4.35,0,0,0,4.345-4.345v-7.283a4.35,4.35,0,0,0-4.345-4.345Z" transform="translate(-301.176 -123.431)"/><path class="a" d="M324.958,151.965a4.752,4.752,0,1,1,4.752-4.752A4.757,4.757,0,0,1,324.958,151.965Zm0-8.064a3.312,3.312,0,1,0,3.311,3.312A3.315,3.315,0,0,0,324.958,143.9Z" transform="translate(-315.565 -137.82)"/><path class="a" d="M358.7,136.505a1.237,1.237,0,1,1-1.237-1.237A1.237,1.237,0,0,1,358.7,136.505Z" transform="translate(-342.797 -132.381)"/></svg>