<svg xmlns="http://www.w3.org/2000/svg" width="20.135" height="16.088" viewBox="0 0 20.135 16.088"><defs><style>.a{fill:#fff;fill-rule:evenodd;}</style></defs><g transform="translate(0 0)"><path class="a" d="M20.135.874S18,1.1,17.056,1.284A4.19,4.19,0,0,0,14.024,0,4.11,4.11,0,0,0,9.867,4.062a4.05,4.05,0,0,0,.107.924A11.87,11.87,0,0,1,1.412.742,3.987,3.987,0,0,0,.848,2.785,4.037,4.037,0,0,0,2.7,6.166,4.242,4.242,0,0,1,.815,5.657v.054a4.085,4.085,0,0,0,3.332,3.98,4.282,4.282,0,0,1-1.875.071,4.148,4.148,0,0,0,3.88,2.821A8.49,8.49,0,0,1,0,14.262a11.965,11.965,0,0,0,6.371,1.826A11.6,11.6,0,0,0,18.192,4.534c0-.177,0-.352-.013-.526.812-.574,1.4-2.317,1.955-3.134"/></g></svg>