<svg xmlns="http://www.w3.org/2000/svg" width="20.557" height="14.547" viewBox="0 0 20.557 14.547"><defs><style>.a{fill:#fff;}</style></defs><path class="a" d="M107.124,296.334c-.008-.243-.021-.487-.04-.73a5.351,5.351,0,0,0-.875-3.035,3.328,3.328,0,0,0-2.342-.962c-1.085-.123-2.175-.2-3.266-.238-2.209-.085-4.421-.035-6.63.014-1.135.025-2.271.05-3.4.141-1.39.111-2.819.314-3.467,1.7a10.242,10.242,0,0,0-.516,4.171c-.007,1.2-.011,2.406.038,3.607.063,1.56.155,3.591,1.839,4.275a9.7,9.7,0,0,0,2.944.509c1.018.066,2.038.058,3.057.073,2.137.032,4.274-.042,6.41-.084a14.5,14.5,0,0,0,4.427-.531c1.226-.418,1.546-1.746,1.711-2.9a23.98,23.98,0,0,0,.121-3.459C107.131,298.039,107.154,297.185,107.124,296.334ZM94.778,301.7v-6.254l5.323,3.126Z" transform="translate(-86.583 -291.324)"/></svg>